<?xml version="1.0" encoding="UTF-8" standalone="no"?>
<!DOCTYPE svg PUBLIC "-//W3C//DTD SVG 1.1//EN" "http://www.w3.org/Graphics/SVG/1.1/DTD/svg11.dtd">
<svg width="100%" height="100%" viewBox="0 0 534 505" version="1.1" xmlns="http://www.w3.org/2000/svg" xmlns:xlink="http://www.w3.org/1999/xlink" xml:space="preserve" xmlns:serif="http://www.serif.com/" style="fill-rule:evenodd;clip-rule:evenodd;stroke-linejoin:round;stroke-miterlimit:1.41421;">
    <g transform="matrix(1,0,0,1,-1454.09,-43.4818)">
        <g transform="matrix(1,0,0,1,-0.763497,0)">
            <g transform="matrix(1,-3.46945e-18,3.46945e-18,1,39.6688,-54.4818)">
                <g>
                    <path d="M1642.74,97.985C1579.02,98.225 1504.35,97.802 1476.59,117.277C1448.82,136.751 1416.84,163.557 1416.18,231.619C1415.54,299.327 1412.85,460.22 1420.42,504.213C1427.25,543.884 1430.76,605.819 1530.13,602.687C1629.51,599.555 1744.79,601.126 1798.89,598.512C1852.99,595.897 1908.08,600.249 1929.74,566.559C1951.4,532.869 1949.49,425.879 1946.3,386.676C1943.11,347.473 1950.24,222.458 1943.18,186.046C1936.12,149.634 1903.73,108.611 1822.3,104.042C1740.87,99.473 1706.45,97.745 1642.74,97.985ZM1701.43,288.63C1701.43,288.63 1703.35,222.92 1751.75,216.744C1787.07,212.238 1803.63,240.294 1803.63,240.294C1803.63,240.294 1826.25,233.712 1833.86,230.136C1841.45,226.559 1853.1,225.702 1849.21,237.163C1845.32,248.624 1837.42,260.239 1828.38,266.494C1828.38,266.494 1846,262.819 1853.02,262.973C1860.05,263.127 1856.8,279.024 1845.46,285.127C1834.12,291.23 1832.06,293.234 1832.06,293.234C1832.06,293.234 1845.02,335.716 1802.99,410.066C1760.97,484.417 1697.5,504.156 1655.38,508.33C1613.26,512.504 1550.66,488.503 1532.47,471.446C1514.28,454.389 1506.07,446.683 1507.31,440.476C1508.54,434.269 1511.25,436.098 1523.75,439.122C1536.26,442.147 1569.21,455.631 1615.13,434.809C1615.13,434.809 1575.19,429.871 1557.57,398.734C1539.95,367.596 1546.69,368.925 1548.67,367.443C1550.65,365.961 1555.89,366.823 1562.87,369.867C1569.86,372.911 1582.64,374.01 1582.7,374.009C1582.75,374.008 1551.07,348.219 1544.86,319.178C1538.65,290.138 1538.95,285.277 1542.95,284.965C1546.95,284.654 1549.5,290.155 1553.04,292.378C1556.58,294.602 1565.85,301.701 1568,299.769C1570.16,297.837 1556.21,285.949 1555.86,266.117C1555.51,246.286 1559.68,233.734 1564.44,236.647C1569.2,239.561 1591.38,263.184 1636.48,277.713C1681.57,292.243 1701.43,288.63 1701.43,288.63Z" style="fill:rgb(56,161,243);"/>
                </g>
            </g>
        </g>
    </g>
</svg>
